<?xml version="1.0" standalone="no"?>
<!DOCTYPE svg PUBLIC "-//W3C//DTD SVG 20010904//EN"
 "http://www.w3.org/TR/2001/REC-SVG-20010904/DTD/svg10.dtd">
<svg version="1.0" xmlns="http://www.w3.org/2000/svg"
 width="321.233476pt" height="328.963138pt" viewBox="0 0 321.233476 328.963138"
 preserveAspectRatio="xMidYMid meet">
<metadata>
Created by potrace 1.16, written by Peter Selinger 2001-2019
</metadata>
<g transform="translate(-95.844792,420.998422) scale(0.100000,-0.100000)"
fill="#000000" stroke="none">
<path d="M2276 4185 c-58 -28 -108 -75 -143 -134 -22 -39 -27 -60 -30 -146 -5
-118 -21 -165 -66 -187 -18 -9 -56 -28 -84 -42 -29 -14 -67 -26 -84 -26 -29 0
-98 32 -139 65 -25 20 -130 55 -163 55 -18 -1 -50 -9 -72 -20 -22 -11 -46 -19
-52 -20 -27 0 -98 -79 -171 -189 -42 -64 -82 -125 -88 -136 -11 -20 -26 -44
-79 -132 -26 -43 -29 -56 -29 -133 0 -74 3 -91 27 -130 30 -52 48 -70 134
-140 69 -55 81 -82 65 -138 -12 -39 -24 -125 -24 -156 1 -36 -17 -53 -102 -95
-111 -55 -168 -116 -197 -215 l-21 -68 21 -77 c12 -42 35 -112 52 -156 17 -44
35 -93 40 -110 18 -61 85 -192 113 -224 57 -64 188 -113 248 -92 17 6 41 11
54 11 13 0 39 7 58 16 47 23 75 13 146 -52 68 -63 69 -70 48 -193 -16 -93 4
-163 64 -222 68 -67 303 -170 404 -177 93 -6 171 41 226 138 18 30 39 60 47
67 10 7 49 12 97 13 l81 0 27 -38 c14 -21 26 -43 26 -48 0 -6 21 -32 46 -58
110 -111 198 -103 503 47 41 20 98 80 122 127 26 53 28 138 5 215 -15 48 -15
51 7 81 27 39 131 124 150 124 8 0 36 -10 63 -22 38 -17 69 -22 140 -22 84 -1
94 2 132 27 104 73 141 135 240 407 38 106 46 139 49 215 l4 90 -41 62 c-44
66 -118 123 -194 149 -82 28 -90 47 -112 256 l-6 56 48 46 c26 25 51 46 55 46
13 0 89 73 89 85 0 5 9 21 20 35 16 21 20 41 20 120 0 65 -5 103 -15 120 -8
14 -19 34 -24 45 -12 22 -44 75 -75 121 -11 16 -49 73 -83 126 -71 108 -114
155 -179 193 -37 22 -56 26 -125 26 l-80 0 -101 -60 c-61 -37 -113 -61 -130
-61 -36 0 -204 84 -216 107 -5 10 -12 56 -15 103 -11 170 -66 267 -182 322
l-60 28 -220 -1 c-209 -1 -222 -2 -269 -24z m477 -190 c41 -17 47 -34 47 -131
0 -81 20 -150 62 -211 35 -52 73 -81 163 -123 39 -18 77 -39 85 -45 8 -7 39
-18 69 -25 64 -15 145 0 200 37 71 48 159 86 185 79 24 -6 106 -82 106 -98 0
-4 18 -34 40 -65 22 -32 40 -61 40 -65 0 -3 20 -36 45 -73 73 -109 74 -184 3
-232 -76 -53 -116 -93 -144 -150 -27 -52 -29 -65 -27 -154 3 -144 33 -250 89
-315 45 -54 138 -114 175 -114 25 0 77 -52 85 -85 6 -24 -41 -181 -57 -191 -5
-3 -9 -16 -9 -29 0 -14 -9 -44 -19 -67 -11 -24 -30 -69 -43 -101 -27 -71 -64
-102 -111 -94 -18 3 -63 13 -102 22 -129 30 -193 8 -321 -109 -101 -92 -128
-142 -128 -232 0 -38 6 -89 13 -112 16 -46 5 -88 -24 -97 -25 -8 -39 -14 -55
-24 -40 -25 -134 -62 -172 -67 -50 -7 -70 9 -111 86 -28 54 -92 105 -150 121
-24 6 -85 9 -142 7 -133 -5 -171 -26 -257 -139 -10 -13 -18 -29 -18 -36 0 -24
-47 -46 -86 -39 -41 8 -166 57 -186 73 -7 6 -23 14 -35 17 -28 9 -26 0 -27
167 -1 132 -2 137 -30 177 -32 47 -149 155 -205 189 -48 30 -157 31 -238 3
-32 -11 -66 -20 -76 -20 -26 0 -84 66 -93 104 -6 29 -17 56 -65 162 -11 23
-19 47 -19 55 0 8 -7 28 -16 44 -9 17 -18 56 -21 87 -5 55 -4 59 27 88 18 17
44 33 59 37 74 17 164 100 205 188 11 23 20 69 22 110 2 39 9 91 15 117 8 35
8 56 0 79 -6 18 -11 41 -12 53 -1 33 -59 106 -129 163 -69 55 -93 98 -79 145
9 32 59 126 100 186 16 24 29 45 29 48 0 5 49 74 60 84 3 3 14 18 23 33 10 16
32 34 49 41 44 19 84 5 188 -63 14 -10 52 -24 86 -33 56 -16 64 -16 117 0 31
10 60 21 64 26 4 4 44 24 88 45 88 42 120 68 157 127 36 57 47 100 49 189 2
158 12 164 250 165 133 0 185 -4 212 -15z M2417 3105 c-124 -39 -210 -90 -291
-175 -77 -81 -114 -139 -152 -240 -21 -55 -25 -82 -25 -190 -1 -130 13 -189
67 -290 58 -108 170 -218 280 -273 71 -36 200 -67 277 -67 182 0 394 115 495
270 20 30 40 58 44 61 5 3 22 45 39 93 27 77 30 100 30 200 0 120 -9 172 -43
246 -107 230 -314 374 -553 386 -76 3 -102 0 -168 -21z m333 -220 c30 -15 74
-43 97 -61 40 -33 103 -115 103 -135 0 -5 9 -26 20 -46 16 -31 20 -57 20 -143
0 -86 -4 -112 -20 -143 -11 -20 -20 -41 -20 -47 0 -17 -88 -125 -123 -151
-133 -99 -298 -116 -447 -45 -137 65 -224 196 -247 371 -6 40 20 140 56 215
44 93 145 177 249 207 30 8 86 12 152 10 91 -3 112 -7 160 -32z"/>
</g>
</svg>
