<?xml version="1.0" standalone="no"?>
<!DOCTYPE svg PUBLIC "-//W3C//DTD SVG 20010904//EN"
 "http://www.w3.org/TR/2001/REC-SVG-20010904/DTD/svg10.dtd">
<svg version="1.0" xmlns="http://www.w3.org/2000/svg"
 width="338.159836pt" height="273.958779pt" viewBox="0 0 338.159836 273.958779"
 preserveAspectRatio="xMidYMid meet">
<metadata>
Created by potrace 1.16, written by Peter Selinger 2001-2019
</metadata>
<g transform="translate(-86.826960,392.958779) scale(0.100000,-0.100000)"
fill="#000000" stroke="none">
<path d="M1052 3907 c-160 -84 -229 -276 -153 -425 40 -77 141 -172 185 -172
11 0 34 -7 50 -15 35 -19 93 -19 126 0 14 8 35 14 47 15 54 1 154 95 200 189
35 71 32 174 -6 249 -33 64 -84 116 -153 155 -42 25 -56 27 -150 27 -87 -1
-110 -4 -146 -23z m212 -157 c41 -15 86 -86 86 -134 0 -76 -72 -146 -150 -148
-42 -1 -104 31 -127 65 -48 69 -19 182 55 214 33 15 102 16 136 3z M1908 3700
c-43 -23 -72 -71 -64 -105 3 -13 22 -37 41 -54 l36 -31 1126 0 1125 0 39 39
c44 44 48 70 18 112 -43 61 13 58 -1187 58 -1074 0 -1098 0 -1134 -19z M1105
2858 c-93 -32 -163 -95 -205 -184 -74 -157 -4 -331 169 -418 74 -37 175 -37
254 0 156 71 245 252 192 389 -37 97 -126 181 -224 211 -53 16 -142 17 -186 2z
m153 -178 c108 -47 123 -166 32 -244 -26 -22 -41 -26 -91 -26 -55 0 -63 3
-101 38 -35 33 -41 45 -46 90 -6 69 27 123 90 145 57 20 62 20 116 -3z M1888
2630 c-14 -10 -31 -33 -38 -50 -11 -27 -11 -37 3 -66 9 -19 29 -40 44 -46 34
-15 1723 -23 2076 -11 l229 8 24 28 c35 41 32 81 -10 123 l-34 34 -1135 0
c-1113 0 -1135 0 -1159 -20z M953 1785 c-57 -35 -63 -61 -63 -293 0 -213 6
-244 58 -281 29 -20 41 -21 252 -21 l221 0 34 26 c53 40 60 75 60 284 0 211
-5 234 -68 280 l-41 30 -205 0 c-202 0 -207 -1 -248 -25z m387 -285 l0 -130
-139 0 -139 0 0 123 c1 67 3 125 5 130 2 4 65 7 139 7 l134 0 0 -130z M1913
1580 c-47 -21 -78 -68 -69 -105 3 -12 19 -37 35 -54 l29 -31 1136 0 1136 0 35
36 c55 56 41 115 -36 154 -36 19 -72 20 -1131 19 -1047 0 -1095 -1 -1135 -19z"/>
</g>
</svg>
