<?xml version="1.0" standalone="no"?>
<!DOCTYPE svg PUBLIC "-//W3C//DTD SVG 20010904//EN"
 "http://www.w3.org/TR/2001/REC-SVG-20010904/DTD/svg10.dtd">
<svg version="1.0" xmlns="http://www.w3.org/2000/svg"
 width="387.245351pt" height="323.520784pt" viewBox="0 0 387.245351 323.520784"
 preserveAspectRatio="xMidYMid meet">
<metadata>
Created by potrace 1.16, written by Peter Selinger 2001-2019
</metadata>
<g transform="translate(-62.500000,417.663197) scale(0.100000,-0.100000)"
fill="#000000" stroke="none">
<path d="M880 4170 c-81 -18 -175 -92 -228 -180 l-27 -45 0 -1145 0 -1145 26
-47 c30 -54 94 -117 159 -156 l45 -27 244 -3 c135 -1 246 -4 249 -6 2 -3 5
-53 6 -113 1 -93 5 -114 26 -153 45 -83 109 -159 136 -160 6 0 24 -10 40 -23
28 -21 35 -22 314 -25 157 -2 323 1 370 7 291 33 494 171 760 516 107 138 250
260 370 316 14 6 43 20 66 30 23 11 48 19 56 19 8 0 41 9 72 20 52 17 89 20
357 22 195 2 299 0 299 -7 0 -5 -15 -21 -33 -35 -17 -14 -80 -75 -139 -135
-122 -126 -135 -153 -94 -198 52 -56 61 -50 310 196 247 243 257 257 214 312
-55 71 -446 445 -464 445 -22 -1 -56 -27 -72 -56 -22 -42 -2 -71 139 -208 77
-74 139 -136 139 -138 0 -2 -109 -2 -242 0 -192 3 -255 0 -307 -12 -36 -9 -94
-20 -129 -25 -34 -6 -72 -17 -84 -25 -12 -9 -32 -16 -43 -16 -29 0 -169 -74
-271 -144 -69 -47 -187 -157 -225 -209 -30 -41 -73 -93 -182 -218 -90 -104
-181 -175 -277 -220 -87 -40 -114 -49 -139 -49 -16 0 -45 -7 -64 -15 -30 -12
-89 -15 -319 -14 -271 0 -285 1 -327 22 -24 12 -54 35 -65 50 -21 28 -21 29
-21 1092 l0 1064 28 29 c15 16 47 39 71 51 l44 21 814 -2 814 -3 42 -34 c75
-59 73 -45 73 -594 -1 -532 0 -547 54 -567 39 -15 54 -12 80 15 l25 24 0 532
0 532 -26 53 c-64 132 -179 199 -354 207 l-55 2 -5 175 c-5 168 -6 177 -32
220 -38 63 -91 114 -156 152 l-57 33 -985 1 c-542 1 -1001 -2 -1020 -6z m1988
-170 c83 -43 100 -87 102 -260 1 -69 2 -131 1 -137 -1 -10 -148 -13 -668 -16
-368 -2 -684 -7 -703 -12 -19 -4 -46 -16 -59 -26 -13 -11 -28 -19 -34 -19 -20
0 -100 -95 -125 -150 l-27 -55 -1 -725 c-1 -399 -2 -791 -3 -872 l-1 -148
-215 0 c-245 0 -271 7 -326 83 l-29 40 0 1084 c0 1044 1 1085 19 1121 23 45
50 70 99 93 34 16 106 17 984 18 932 1 948 1 986 -19z"/>
</g>
</svg>
