<?xml version="1.0" standalone="no"?>
<!DOCTYPE svg PUBLIC "-//W3C//DTD SVG 20010904//EN"
 "http://www.w3.org/TR/2001/REC-SVG-20010904/DTD/svg10.dtd">
<svg version="1.0" xmlns="http://www.w3.org/2000/svg"
 width="302.016083pt" height="338.096971pt" viewBox="0 0 302.016083 338.096971"
 preserveAspectRatio="xMidYMid meet">
<metadata>
Created by potrace 1.16, written by Peter Selinger 2001-2019
</metadata>
<g transform="translate(-102.865147,425.036502) scale(0.100000,-0.100000)"
fill="#000000" stroke="none">
<path d="M2453 4219 c-42 -29 -66 -71 -123 -209 -28 -70 -57 -135 -81 -182
-11 -20 -19 -44 -19 -52 0 -8 -11 -36 -25 -62 -14 -26 -25 -53 -25 -60 0 -8
-11 -35 -25 -61 -40 -79 -125 -278 -125 -295 0 -9 -7 -21 -15 -28 -8 -7 -17
-28 -21 -49 -4 -20 -15 -52 -25 -71 -10 -19 -29 -64 -44 -100 -14 -36 -34 -82
-45 -102 -11 -20 -20 -43 -20 -50 0 -7 -8 -29 -19 -48 -10 -19 -22 -46 -26
-60 -4 -14 -27 -66 -51 -116 -23 -50 -47 -109 -53 -130 -6 -22 -18 -48 -26
-58 -8 -11 -15 -29 -15 -40 0 -12 -9 -34 -20 -51 -11 -16 -20 -36 -20 -44 0
-8 -9 -33 -19 -55 -11 -23 -38 -86 -62 -141 -23 -55 -45 -104 -49 -110 -4 -5
-13 -28 -20 -50 -7 -22 -21 -56 -31 -75 -11 -19 -19 -42 -19 -51 0 -9 -6 -22
-14 -28 -8 -6 -19 -32 -25 -58 -7 -25 -19 -55 -27 -67 -7 -11 -14 -29 -14 -39
0 -11 -9 -36 -19 -56 -11 -20 -34 -70 -51 -111 -17 -41 -40 -95 -50 -120 -10
-25 -33 -79 -50 -120 -17 -41 -40 -93 -50 -116 -11 -23 -20 -46 -20 -52 0 -12
-28 -77 -62 -147 -37 -75 -31 -80 115 -83 l127 -3 20 33 c11 18 20 40 20 48 0
8 9 32 20 53 11 20 20 42 20 48 0 7 11 35 25 63 25 53 122 275 157 361 11 28
28 67 39 87 10 20 19 48 19 61 0 13 9 36 21 51 l20 26 898 0 c934 0 921 1 921
-41 0 -16 26 -80 71 -175 10 -23 19 -46 19 -51 0 -6 12 -37 26 -69 14 -33 37
-86 51 -119 14 -33 36 -83 49 -110 13 -28 24 -58 24 -66 0 -9 6 -22 14 -28 8
-7 18 -26 21 -43 4 -17 18 -53 32 -80 l24 -49 122 3 c121 3 122 3 126 28 1 14
-6 43 -17 65 -11 22 -25 56 -32 75 -30 86 -42 118 -61 156 -10 22 -19 46 -19
53 0 6 -9 29 -20 49 -11 20 -33 71 -50 112 -17 41 -39 92 -50 112 -11 20 -20
43 -20 50 0 7 -11 36 -25 63 -13 28 -25 57 -25 65 0 8 -9 29 -20 45 -11 17
-20 37 -20 45 0 8 -9 32 -20 53 -11 20 -20 42 -20 48 0 12 -35 99 -70 174 -10
22 -33 74 -50 115 -17 41 -42 98 -55 126 -14 28 -25 57 -25 65 0 8 -9 28 -20
44 -11 17 -20 39 -20 50 0 11 -9 34 -20 50 -11 17 -20 39 -20 50 0 11 -8 34
-19 51 -10 17 -22 41 -26 55 -3 13 -15 42 -26 64 -10 22 -32 74 -49 115 -17
41 -39 93 -50 115 -17 37 -41 92 -90 215 -10 25 -30 73 -44 106 -14 34 -26 67
-26 74 0 6 -6 24 -14 38 -8 15 -31 65 -51 112 -37 87 -53 123 -99 221 -14 31
-26 61 -26 68 0 6 -9 28 -20 48 -11 21 -20 45 -20 53 0 8 -9 29 -20 45 -11 17
-20 39 -20 50 0 11 -8 34 -19 50 -10 17 -23 46 -30 65 -14 42 -43 76 -97 113
-56 38 -114 37 -171 -4z m129 -444 c15 -43 32 -83 38 -89 5 -5 10 -17 10 -25
0 -9 11 -38 25 -66 13 -27 25 -54 25 -59 0 -10 111 -263 170 -388 11 -24 20
-50 20 -58 0 -8 9 -28 20 -45 11 -16 20 -37 20 -46 0 -9 11 -41 24 -70 12 -30
35 -83 50 -119 15 -36 35 -81 45 -100 10 -19 24 -53 31 -75 7 -22 19 -49 26
-60 8 -11 14 -26 14 -35 0 -8 11 -36 25 -62 14 -26 25 -53 25 -60 0 -7 7 -26
16 -43 9 -16 22 -46 29 -65 82 -217 105 -273 121 -291 8 -8 14 -23 14 -32 0
-16 -58 -17 -785 -17 -621 0 -785 3 -785 13 0 6 9 26 20 42 11 17 20 38 20 48
0 10 9 35 20 55 30 57 70 153 70 168 0 7 9 28 20 46 11 18 20 39 20 47 0 8 9
32 20 55 10 23 33 75 50 116 17 41 40 95 50 120 10 25 33 79 50 120 17 41 39
92 50 112 11 20 20 45 20 54 0 10 6 25 13 33 8 9 21 36 30 61 33 98 50 139 92
225 23 50 46 101 50 115 4 14 16 41 26 60 11 19 19 39 19 45 0 5 12 33 25 60
14 28 25 56 25 63 0 7 9 30 19 50 39 76 61 133 61 158 0 47 24 19 52 -61z"/>
</g>
</svg>
