<svg xmlns="http://www.w3.org/2000/svg" viewBox="0 0 128 128"><title>reader-content-replace</title><path fill="#222" fill-opacity="0.0039" d="M90 20h1v1H90zM89 21h1v1H89zM91 21h1v1H91zM92 22h1v1H92zM93 23h1v1H93zM94 24h1v1H94zM84 25h2v1H84zM95 25h1v1H95zM85 26h1v1H85zM94 26h1v1H94zM96 26h1v1H96zM86 27h2v1H86zM87 28h1v1H87zM96 28h1v1H96zM98 28h1v1H98zM32 30h1v1H32zM98 30h1v1H98zM100 30h1v1H100zM28 31h1v1H28zM101 31h1v1H101zM26 32h1v1H26zM102 35h2v1H102zM22 36h1v1H22zM22 37h1v1H22zM44 37h2v1H44zM56 37h3v1H56zM69 37h1v1H69zM77 37h2v1H77zM81 37h4v1H81zM37 38h5v1H37zM47 38h2v1H47zM52 38h2v1H52zM61 38h2v1H61zM70 38h1v1H70zM86 38h1v1H86zM19 39h1v1H19zM34 39h16v1H34zM51 39h13v1H51zM68 39h19v1H68zM88 39h1v1H88zM17 42h1v1H17zM17 43h1v1H17zM25 44h1v1H25zM84 44h1v1H84zM24 45h1v1H24zM85 47h1v1H85zM24 61h1v1H24zM106 62h1v1H106zM23 63h1v1H23zM104 63h1v1H104zM107 63h1v1H107zM20 65h2v1H20zM102 67h1v1H102zM102 68h1v1H102zM102 69h1v1H102zM102 70h1v1H102zM102 71h1v1H102zM102 72h1v1H102zM102 73h1v1H102zM102 74h1v1H102zM41 78h1v1H41zM102 78h1v1H102zM102 79h1v1H102zM43 80h1v1H43zM102 80h1v1H102zM110 82h1v1H110zM110 83h1v1H110zM41 86h1v1H41zM109 86h1v1H109zM39 88h1v1H39zM94 88h1v1H94zM108 88h1v1H108zM27 90h1v1H27zM25 91h2v1H25zM102 94h1v1H102zM26 95h2v1H26zM26 96h1v1H26zM99 96h1v1H99zM27 97h1v1H27zM29 97h1v1H29zM39 98h1v1H39zM29 99h1v1H29zM31 99h1v1H31zM40 99h1v1H40zM41 100h1v1H41zM31 101h1v1H31zM33 101h1v1H33zM32 102h1v1H32zM33 103h1v1H33zM35 103h1v1H35zM34 104h2v1H34zM44 104h1v1H44zM36 105h1v1H36zM36 106h1v1H36zM37 107h1v1H37zM38 108h1v1H38zM41 108h1v1H41z"/><path fill="#222" fill-opacity="0.0078" d="M87 19h1v1H87zM86 20h1v1H86zM84 22h1v1H84zM91 22h1v1H91zM92 23h1v1H92zM92 24h1v1H92zM86 26h1v1H86zM97 27h1v1H97zM88 29h3v1H88zM99 29h1v1H99zM99 30h1v1H99zM29 31h1v1H29zM100 31h1v1H100zM25 33h1v1H25zM103 34h1v1H103zM23 35h1v1H23zM42 37h1v1H42zM49 38h3v1H49zM63 38h2v1H63zM66 38h2v1H66zM87 38h2v1H87zM20 39h1v1H20zM28 39h1v1H28zM31 39h3v1H31zM28 40h1v1H28zM27 42h1v1H27zM86 42h1v1H86zM85 43h1v1H85zM85 44h1v1H85zM84 47h1v1H84zM85 48h1v1H85zM86 49h1v1H86zM89 49h1v1H89zM25 61h1v1H25zM17 62h1v1H17zM102 65h1v1H102zM108 65h1v1H108zM102 66h1v1H102zM110 66h1v1H110zM110 72h1v1H110zM110 73h1v1H110zM110 74h1v1H110zM102 75h1v1H102zM110 75h1v1H110zM102 76h1v1H102zM102 77h1v1H102zM38 78h1v1H38zM37 79h1v1H37zM103 81h1v1H103zM110 81h1v1H110zM43 83h1v1H43zM109 84h1v1H109zM28 88h1v1H28zM95 88h2v1H95zM107 88h1v1H107zM27 89h1v1H27zM51 89h5v1H51zM84 89h4v1H84zM26 90h1v1H26zM106 90h1v1H106zM24 93h1v1H24zM103 93h1v1H103zM27 96h1v1H27zM98 96h1v1H98zM28 97h1v1H28zM28 98h1v1H28zM37 98h1v1H37zM39 99h1v1H39zM30 100h1v1H30zM42 102h1v1H42zM34 103h1v1H34zM35 105h1v1H35zM43 105h1v1H43zM38 106h1v1H38zM43 106h1v1H43z"/><path fill="#222" fill-opacity="0.0118" d="M88 19h1v1H88zM85 21h1v1H85zM84 23h1v1H84zM84 24h1v1H84zM93 24h1v1H93zM94 25h1v1H94zM95 26h1v1H95zM96 27h1v1H96zM97 28h1v1H97zM98 29h1v1H98zM33 30h1v1H33zM30 31h2v1H30zM100 32h1v1H100zM102 33h1v1H102zM102 36h1v1H102zM35 37h1v1H35zM43 37h1v1H43zM65 38h1v1H65zM89 38h1v1H89zM30 39h1v1H30zM29 40h1v1H29zM88 40h1v1H88zM87 41h1v1H87zM18 42h1v1H18zM26 43h1v1H26zM17 44h1v1H17zM25 45h1v1H25zM84 45h1v1H84zM25 46h1v1H25zM84 46h1v1H84zM25 47h1v1H25zM25 48h1v1H25zM90 48h1v1H90zM25 49h1v1H25zM25 50h1v1H25zM87 50h1v1H87zM25 51h1v1H25zM25 52h1v1H25zM25 53h1v1H25zM25 54h1v1H25zM25 55h1v1H25zM25 56h1v1H25zM25 57h1v1H25zM25 58h1v1H25zM25 59h1v1H25zM25 60h1v1H25zM24 62h1v1H24zM19 64h1v1H19zM109 65h1v1H109zM110 67h1v1H110zM110 68h1v1H110zM110 69h1v1H110zM110 70h1v1H110zM110 71h1v1H110zM110 76h1v1H110zM110 77h1v1H110zM39 78h2v1H39zM110 78h1v1H110zM110 79h1v1H110zM110 80h1v1H110zM43 81h1v1H43zM43 82h1v1H43zM101 83h1v1H101zM42 84h1v1H42zM108 84h1v1H108zM41 85h1v1H41zM30 86h1v1H30zM99 86h1v1H99zM29 87h1v1H29zM108 87h1v1H108zM97 88h1v1H97zM38 89h1v1H38zM47 89h4v1H47zM56 89h5v1H56zM68 89h2v1H68zM80 89h4v1H80zM88 89h4v1H88zM93 89h1v1H93zM107 89h1v1H107zM25 92h1v1H25zM104 92h1v1H104zM25 94h1v1H25zM101 94h1v1H101zM96 96h2v1H96zM36 97h1v1H36zM95 97h1v1H95zM29 98h1v1H29zM38 98h1v1H38zM30 99h1v1H30zM31 100h1v1H31zM32 101h1v1H32zM41 101h1v1H41zM33 102h1v1H33zM43 103h1v1H43z"/><path fill="#222" fill-opacity="0.0157" d="M34 30h25v1H34zM63 30h26v1H63zM27 32h1v1H27zM101 32h1v1H101zM21 37h1v1H21zM101 37h1v1H101zM20 38h1v1H20zM100 38h1v1H100zM89 39h1v1H89zM17 45h1v1H17zM17 46h1v1H17zM92 46h1v1H92zM17 47h1v1H17zM17 48h1v1H17zM17 49h1v1H17zM17 50h1v1H17zM88 50h1v1H88zM17 51h1v1H17zM17 52h1v1H17zM17 53h1v1H17zM17 54h1v1H17zM17 55h1v1H17zM17 56h1v1H17zM17 57h1v1H17zM17 58h1v1H17zM17 59h1v1H17zM17 60h1v1H17zM17 61h1v1H17zM35 81h1v1H35zM32 84h1v1H32zM31 85h1v1H31zM100 85h1v1H100zM108 86h1v1H108zM39 87h1v1H39zM39 89h8v1H39zM61 89h7v1H61zM70 89h10v1H70zM92 89h1v1H92zM100 95h1v1H100zM39 108h2v1H39z"/><path fill="#222" fill-opacity="0.0196" d="M59 30h4v1H59zM90 30h1v1H90zM24 34h1v1H24zM34 37h1v1H34zM99 39h1v1H99zM19 40h1v1H19zM98 40h1v1H98zM18 41h1v1H18zM27 41h1v1H27zM96 42h1v1H96zM94 44h1v1H94zM105 64h1v1H105zM34 82h1v1H34zM33 83h1v1H33zM109 85h1v1H109zM40 86h1v1H40zM98 87h1v1H98zM37 89h1v1H37zM106 89h1v1H106zM105 91h1v1H105zM26 92h1v1H26zM26 94h1v1H26zM37 97h1v1H37zM39 97h56v1H39zM40 100h1v1H40z"/><path fill="#222" fill-opacity="0.0235" d="M89 30h1v1H89zM92 31h1v1H92zM90 38h1v1H90zM97 41h1v1H97zM26 42h1v1H26zM95 43h1v1H95zM93 45h1v1H93zM91 47h1v1H91zM36 80h1v1H36zM101 84h1v1H101zM38 88h1v1H38zM36 90h1v1H36zM38 97h1v1H38zM42 104h1v1H42z"/><path fill="#222" fill-opacity="0.0275" d="M88 27h1v1H88zM28 90h1v1H28zM27 91h1v1H27z"/><path fill="#222" fill-opacity="0.0314" d="M19 42h1v1H19zM94 90h1v1H94zM37 105h1v1H37z"/><path fill="#222" fill-opacity="0.0353" d="M90 22h1v1H90zM87 26h1v1H87zM26 34h1v1H26zM99 94h1v1H99z"/><path fill="#222" fill-opacity="0.0392" d="M102 84h1v1H102z"/><path fill="#222" fill-opacity="0.0431" d="M20 63h2v1H20z"/><path fill="#222" fill-opacity="0.0471" d="M106 64h1v1H106z"/><path fill="#222" fill-opacity="0.0510" d="M93 37h1v1H93zM108 82h1v1H108z"/><path fill="#222" fill-opacity="0.0588" d="M101 86h1v1H101zM99 88h1v1H99z"/><path fill="#222" fill-opacity="0.0627" d="M86 44h1v1H86z"/><path fill="#222" fill-opacity="0.0667" d="M108 83h1v1H108zM107 86h1v1H107z"/><path fill="#222" fill-opacity="0.0745" d="M91 30h1v1H91zM100 87h1v1H100z"/><path fill="#222" fill-opacity="0.0784" d="M19 43h1v1H19z"/><path fill="#222" fill-opacity="0.0863" d="M28 33h1v1H28zM33 37h1v1H33zM25 42h1v1H25z"/><path fill="#222" fill-opacity="0.0941" d="M101 35h1v1H101z"/><path fill="#222" fill-opacity="0.0980" d="M104 65h1v1H104z"/><path fill="#222" fill-opacity="0.1020" d="M101 34h1v1H101z"/><path fill="#222" fill-opacity="0.1059" d="M102 92h1v1H102z"/><path fill="#222" fill-opacity="0.1137" d="M29 89h1v1H29z"/><path fill="#222" fill-opacity="0.1176" d="M41 106h1v1H41z"/><path fill="#222" fill-opacity="0.1451" d="M104 90h1v1H104z"/><path fill="#222" fill-opacity="0.1529" d="M87 43h1v1H87zM26 93h1v1H26z"/><path fill="#222" fill-opacity="0.1569" d="M41 80h1v1H41zM95 90h1v1H95zM103 91h1v1H103z"/><path fill="#222" fill-opacity="0.1608" d="M25 35h1v1H25zM23 61h1v1H23zM105 89h1v1H105z"/><path fill="#222" fill-opacity="0.1725" d="M21 39h1v1H21z"/><path fill="#222" fill-opacity="0.1765" d="M29 33h1v1H29z"/><path fill="#222" fill-opacity="0.1804" d="M32 37h1v1H32zM98 94h1v1H98z"/><path fill="#222" fill-opacity="0.1843" d="M30 88h1v1H30z"/><path fill="#222" fill-opacity="0.1961" d="M31 87h1v1H31z"/><path fill="#222" fill-opacity="0.2078" d="M108 66h1v1H108z"/><path fill="#222" fill-opacity="0.2118" d="M23 56h1v1H23z"/><path fill="#222" fill-opacity="0.2157" d="M33 32h1v1H33zM92 38h1v1H92zM87 48h1v1H87zM23 55h1v1H23zM102 85h1v1H102z"/><path fill="#222" fill-opacity="0.2196" d="M23 57h1v1H23zM95 95h1v1H95z"/><path fill="#222" fill-opacity="0.2235" d="M29 38h1v1H29zM23 54h1v1H23zM23 58h1v1H23zM23 59h1v1H23z"/><path fill="#222" fill-opacity="0.2275" d="M90 40h1v1H90zM96 90h1v1H96z"/><path fill="#222" fill-opacity="0.2353" d="M22 38h1v1H22zM23 53h1v1H23z"/><path fill="#222" fill-opacity="0.2392" d="M91 39h1v1H91z"/><path fill="#222" fill-opacity="0.2471" d="M23 46h1v1H23zM23 47h1v1H23zM23 48h1v1H23z"/><path fill="#222" fill-opacity="0.2510" d="M23 52h1v1H23zM108 81h1v1H108z"/><path fill="#222" fill-opacity="0.2549" d="M31 37h1v1H31zM20 41h1v1H20z"/><path fill="#222" fill-opacity="0.2627" d="M23 49h1v1H23zM23 50h1v1H23zM23 51h1v1H23zM23 60h1v1H23zM32 86h1v1H32z"/><path fill="#222" fill-opacity="0.2745" d="M26 40h1v1H26z"/><path fill="#222" fill-opacity="0.2824" d="M19 62h1v1H19z"/><path fill="#222" fill-opacity="0.2863" d="M88 48h1v1H88z"/><path fill="#222" fill-opacity="0.2902" d="M35 32h1v1H35z"/><path fill="#222" fill-opacity="0.2941" d="M34 32h1v1H34zM36 32h2v1H36zM83 32h2v1H83zM88 42h1v1H88zM24 43h1v1H24zM98 89h1v1H98z"/><path fill="#222" fill-opacity="0.3020" d="M38 32h1v1H38zM82 32h1v1H82z"/><path fill="#222" fill-opacity="0.3059" d="M68 32h1v1H68zM85 32h1v1H85zM103 83h1v1H103zM33 85h1v1H33z"/><path fill="#222" fill-opacity="0.3098" d="M51 32h2v1H51zM67 32h1v1H67zM89 41h1v1H89z"/><path fill="#222" fill-opacity="0.3137" d="M87 21h1v1H87zM39 32h1v1H39zM50 32h1v1H50zM53 32h1v1H53zM69 32h1v1H69zM81 32h1v1H81z"/><path fill="#222" fill-opacity="0.3216" d="M54 32h1v1H54zM80 32h1v1H80zM86 32h1v1H86z"/><path fill="#222" fill-opacity="0.3255" d="M49 32h1v1H49z"/><path fill="#222" fill-opacity="0.3294" d="M70 32h2v1H70zM79 32h1v1H79zM27 39h1v1H27z"/><path fill="#222" fill-opacity="0.3333" d="M40 32h1v1H40zM66 32h1v1H66zM72 32h1v1H72z"/><path fill="#222" fill-opacity="0.3373" d="M41 32h1v1H41zM48 32h1v1H48zM55 32h1v1H55zM65 32h1v1H65zM73 32h1v1H73zM108 73h1v1H108zM34 84h1v1H34z"/><path fill="#222" fill-opacity="0.3412" d="M78 32h1v1H78zM87 32h1v1H87zM108 74h1v1H108zM100 93h1v1H100z"/><path fill="#222" fill-opacity="0.3451" d="M47 32h1v1H47zM74 32h1v1H74zM24 36h1v1H24zM23 45h1v1H23z"/><path fill="#222" fill-opacity="0.3490" d="M92 32h1v1H92z"/><path fill="#222" fill-opacity="0.3529" d="M56 32h1v1H56zM64 32h1v1H64zM77 32h1v1H77zM107 85h1v1H107z"/><path fill="#222" fill-opacity="0.3569" d="M42 32h1v1H42zM75 32h1v1H75zM88 32h1v1H88z"/><path fill="#222" fill-opacity="0.3608" d="M46 32h1v1H46zM89 32h1v1H89z"/><path fill="#222" fill-opacity="0.3647" d="M76 32h1v1H76zM90 32h1v1H90zM108 72h1v1H108zM108 75h1v1H108z"/><path fill="#222" fill-opacity="0.3686" d="M45 32h1v1H45zM57 32h1v1H57z"/><path fill="#222" fill-opacity="0.3725" d="M63 32h1v1H63z"/><path fill="#222" fill-opacity="0.3765" d="M43 32h2v1H43zM108 76h1v1H108z"/><path fill="#222" fill-opacity="0.3804" d="M58 32h1v1H58z"/><path fill="#222" fill-opacity="0.3843" d="M86 22h1v1H86z"/><path fill="#222" fill-opacity="0.3882" d="M62 32h1v1H62z"/><path fill="#222" fill-opacity="0.3922" d="M59 32h1v1H59zM108 71h1v1H108zM108 77h1v1H108zM35 83h1v1H35zM106 87h1v1H106z"/><path fill="#222" fill-opacity="0.3961" d="M60 32h2v1H60zM91 32h1v1H91z"/><path fill="#222" fill-opacity="0.4000" d="M108 67h1v1H108z"/><path fill="#222" fill-opacity="0.4039" d="M94 95h1v1H94z"/><path fill="#222" fill-opacity="0.4118" d="M108 68h1v1H108zM108 70h1v1H108zM108 78h1v1H108zM37 95h1v1H37z"/><path fill="#222" fill-opacity="0.4157" d="M41 83h1v1H41z"/><path fill="#222" fill-opacity="0.4235" d="M35 95h1v1H35z"/><path fill="#222" fill-opacity="0.4275" d="M93 32h1v1H93zM22 62h1v1H22zM38 95h1v1H38z"/><path fill="#222" fill-opacity="0.4353" d="M86 47h1v1H86zM108 69h1v1H108z"/><path fill="#222" fill-opacity="0.4392" d="M88 21h1v1H88z"/><path fill="#222" fill-opacity="0.4431" d="M27 34h1v1H27zM104 66h1v1H104zM36 95h1v1H36zM39 95h55v1H39z"/><path fill="#222" fill-opacity="0.4471" d="M100 36h1v1H100zM38 80h1v1H38z"/><path fill="#222" fill-opacity="0.4510" d="M98 38h1v1H98zM96 40h1v1H96zM94 42h1v1H94zM92 44h1v1H92zM108 79h1v1H108z"/><path fill="#222" fill-opacity="0.4549" d="M93 43h1v1H93zM91 45h1v1H91zM90 46h1v1H90zM89 47h1v1H89zM37 81h1v1H37zM36 82h1v1H36z"/><path fill="#222" fill-opacity="0.4588" d="M25 41h1v1H25z"/><path fill="#222" fill-opacity="0.4627" d="M97 39h1v1H97zM95 41h1v1H95z"/><path fill="#222" fill-opacity="0.4667" d="M99 37h1v1H99z"/><path fill="#222" fill-opacity="0.4784" d="M23 37h1v1H23zM19 44h1v1H19z"/><path fill="#222" fill-opacity="0.4863" d="M108 80h1v1H108z"/><path fill="#222" fill-opacity="0.5098" d="M39 85h1v1H39zM38 86h1v1H38zM37 87h1v1H37z"/><path fill="#222" fill-opacity="0.5137" d="M40 84h1v1H40zM36 88h1v1H36z"/><path fill="#222" fill-opacity="0.5176" d="M35 89h1v1H35z"/><path fill="#222" fill-opacity="0.5294" d="M34 90h1v1H34z"/><path fill="#222" fill-opacity="0.5529" d="M64 91h1v1H64zM72 91h5v1H72z"/><path fill="#222" fill-opacity="0.5569" d="M86 24h1v1H86zM65 91h1v1H65zM71 91h1v1H71z"/><path fill="#222" fill-opacity="0.5608" d="M104 76h1v1H104zM44 91h1v1H44zM63 91h1v1H63zM77 91h1v1H77z"/><path fill="#222" fill-opacity="0.5647" d="M104 77h1v1H104zM66 91h1v1H66zM70 91h1v1H70z"/><path fill="#222" fill-opacity="0.5686" d="M104 74h1v1H104zM104 75h1v1H104zM107 84h1v1H107zM43 91h1v1H43zM45 91h1v1H45zM62 91h1v1H62zM67 91h1v1H67zM34 95h1v1H34zM41 103h1v1H41z"/><path fill="#222" fill-opacity="0.5725" d="M40 91h1v1H40zM78 91h1v1H78zM39 101h1v1H39z"/><path fill="#222" fill-opacity="0.5765" d="M104 73h1v1H104zM104 78h1v1H104zM104 79h1v1H104zM39 91h1v1H39zM41 91h2v1H41zM61 91h1v1H61z"/><path fill="#222" fill-opacity="0.5804" d="M46 91h1v1H46zM79 91h1v1H79zM92 91h1v1H92zM38 100h1v1H38z"/><path fill="#222" fill-opacity="0.5843" d="M107 65h1v1H107zM91 91h1v1H91z"/><path fill="#222" fill-opacity="0.5882" d="M93 36h1v1H93zM104 72h1v1H104zM59 91h2v1H59zM68 91h1v1H68z"/><path fill="#222" fill-opacity="0.5922" d="M47 91h1v1H47zM69 91h1v1H69zM80 91h1v1H80z"/><path fill="#222" fill-opacity="0.5961" d="M90 91h1v1H90z"/><path fill="#222" fill-opacity="0.6000" d="M48 91h1v1H48zM58 91h1v1H58zM81 91h1v1H81zM89 91h1v1H89z"/><path fill="#222" fill-opacity="0.6039" d="M89 36h1v1H89zM49 91h1v1H49zM57 91h1v1H57zM34 96h1v1H34zM40 102h1v1H40z"/><path fill="#222" fill-opacity="0.6078" d="M104 67h1v1H104zM38 91h1v1H38zM56 91h1v1H56zM82 91h1v1H82zM39 106h1v1H39z"/><path fill="#222" fill-opacity="0.6118" d="M65 36h1v1H65zM104 71h1v1H104zM50 91h1v1H50zM83 91h1v1H83zM88 91h1v1H88zM93 91h1v1H93z"/><path fill="#222" fill-opacity="0.6157" d="M88 36h1v1H88zM55 91h1v1H55zM84 91h1v1H84z"/><path fill="#222" fill-opacity="0.6196" d="M66 36h1v1H66zM51 91h4v1H51zM85 91h3v1H85zM36 98h1v1H36z"/><path fill="#222" fill-opacity="0.6235" d="M90 36h1v1H90z"/><path fill="#222" fill-opacity="0.6275" d="M100 33h1v1H100zM64 36h1v1H64zM67 36h1v1H67zM104 80h1v1H104z"/><path fill="#222" fill-opacity="0.6314" d="M50 36h1v1H50zM104 68h1v1H104z"/><path fill="#222" fill-opacity="0.6353" d="M49 36h1v1H49zM87 36h1v1H87zM104 70h1v1H104zM37 99h1v1H37z"/><path fill="#222" fill-opacity="0.6392" d="M89 27h1v1H89zM51 36h1v1H51zM63 36h1v1H63z"/><path fill="#222" fill-opacity="0.6431" d="M90 28h1v1H90zM91 36h1v1H91zM104 69h1v1H104z"/><path fill="#222" fill-opacity="0.6471" d="M39 36h1v1H39zM48 36h1v1H48zM52 36h1v1H52zM35 91h1v1H35z"/><path fill="#222" fill-opacity="0.6510" d="M38 36h1v1H38zM27 94h1v1H27z"/><path fill="#222" fill-opacity="0.6549" d="M86 36h1v1H86z"/><path fill="#222" fill-opacity="0.6588" d="M40 36h1v1H40zM62 36h1v1H62z"/><path fill="#222" fill-opacity="0.6627" d="M37 36h1v1H37zM53 36h1v1H53zM70 36h1v1H70zM92 36h1v1H92zM37 91h1v1H37zM101 92h1v1H101z"/><path fill="#222" fill-opacity="0.6667" d="M94 27h1v1H94zM96 29h1v1H96zM98 31h1v1H98zM29 96h1v1H29zM31 98h1v1H31zM33 100h1v1H33z"/><path fill="#222" fill-opacity="0.6706" d="M92 25h1v1H92zM41 36h1v1H41zM47 36h1v1H47zM61 36h1v1H61zM35 102h1v1H35z"/><path fill="#222" fill-opacity="0.6784" d="M91 24h1v1H91zM91 29h1v1H91zM54 36h1v1H54zM71 36h1v1H71z"/><path fill="#222" fill-opacity="0.6824" d="M93 26h1v1H93zM68 36h1v1H68zM72 36h1v1H72zM85 36h1v1H85zM34 101h1v1H34z"/><path fill="#222" fill-opacity="0.6863" d="M88 26h1v1H88zM95 28h1v1H95zM97 30h1v1H97zM36 36h1v1H36zM55 36h1v1H55zM60 36h1v1H60zM30 97h1v1H30zM32 99h1v1H32z"/><path fill="#222" fill-opacity="0.6902" d="M99 32h1v1H99zM73 36h1v1H73zM28 95h1v1H28z"/><path fill="#222" fill-opacity="0.6941" d="M90 23h1v1H90zM87 25h1v1H87zM46 36h1v1H46zM59 36h1v1H59zM74 36h2v1H74zM20 42h1v1H20zM40 106h1v1H40z"/><path fill="#222" fill-opacity="0.6980" d="M76 36h1v1H76zM79 36h2v1H79zM28 38h1v1H28zM19 60h1v1H19zM34 91h1v1H34zM27 92h1v1H27zM36 103h1v1H36z"/><path fill="#222" fill-opacity="0.7020" d="M93 31h1v1H93zM56 36h1v1H56zM58 36h1v1H58zM77 36h2v1H77zM84 36h1v1H84zM19 46h1v1H19zM36 91h1v1H36zM35 97h1v1H35zM37 104h1v1H37z"/><path fill="#222" fill-opacity="0.7059" d="M44 36h1v1H44zM57 36h1v1H57zM69 36h1v1H69zM81 36h3v1H81zM19 49h1v1H19zM103 84h1v1H103z"/><path fill="#222" fill-opacity="0.7098" d="M89 22h1v1H89zM45 36h1v1H45zM19 50h1v1H19zM19 51h1v1H19zM19 52h1v1H19zM19 53h1v1H19zM19 54h1v1H19zM19 55h1v1H19zM19 56h1v1H19zM19 57h1v1H19zM19 58h1v1H19zM19 59h1v1H19z"/><path fill="#222" fill-opacity="0.7137" d="M30 33h1v1H30zM42 36h1v1H42z"/><path fill="#222" fill-opacity="0.7176" d="M35 36h1v1H35zM19 47h1v1H19z"/><path fill="#222" fill-opacity="0.7216" d="M43 36h1v1H43zM19 48h1v1H19zM97 94h1v1H97z"/><path fill="#222" fill-opacity="0.7255" d="M97 90h1v1H97z"/><path fill="#222" fill-opacity="0.7294" d="M86 45h1v1H86zM41 81h1v1H41zM38 105h1v1H38z"/><path fill="#222" fill-opacity="0.7333" d="M34 36h1v1H34zM19 45h1v1H19z"/><path fill="#222" fill-opacity="0.7451" d="M21 40h1v1H21z"/><path fill="#222" fill-opacity="0.7490" d="M28 91h1v1H28zM94 91h1v1H94z"/><path fill="#222" fill-opacity="0.7647" d="M19 61h1v1H19z"/><path fill="#222" fill-opacity="0.7686" d="M30 37h1v1H30z"/><path fill="#222" fill-opacity="0.7725" d="M99 93h1v1H99z"/><path fill="#222" fill-opacity="0.7765" d="M40 80h1v1H40zM29 90h1v1H29z"/><path fill="#222" fill-opacity="0.7843" d="M39 80h1v1H39z"/><path fill="#222" fill-opacity="0.7922" d="M31 33h1v1H31z"/><path fill="#222" fill-opacity="0.7961" d="M96 94h1v1H96z"/><path fill="#222" fill-opacity="0.8078" d="M102 86h1v1H102zM100 88h1v1H100zM41 105h1v1H41z"/><path fill="#222" fill-opacity="0.8118" d="M87 44h1v1H87z"/><path fill="#222" fill-opacity="0.8157" d="M92 30h1v1H92zM101 87h1v1H101zM99 89h1v1H99z"/><path fill="#222" fill-opacity="0.8196" d="M24 42h1v1H24zM105 65h1v1H105z"/><path fill="#222" fill-opacity="0.8235" d="M32 33h1v1H32z"/><path fill="#222" fill-opacity="0.8314" d="M106 86h1v1H106z"/><path fill="#222" fill-opacity="0.8471" d="M104 81h1v1H104zM41 82h1v1H41z"/><path fill="#222" fill-opacity="0.8549" d="M26 35h1v1H26zM33 36h1v1H33z"/><path fill="#222" fill-opacity="0.8588" d="M23 44h1v1H23z"/><path fill="#222" fill-opacity="0.8627" d="M86 46h1v1H86z"/><path fill="#222" fill-opacity="0.8667" d="M30 89h1v1H30z"/><path fill="#222" fill-opacity="0.8824" d="M94 37h1v1H94zM31 88h1v1H31z"/><path fill="#222" fill-opacity="0.8863" d="M105 88h1v1H105z"/><path fill="#222" fill-opacity="0.8902" d="M100 34h1v1H100zM102 91h1v1H102z"/><path fill="#222" fill-opacity="0.8941" d="M32 87h1v1H32zM104 89h1v1H104z"/><path fill="#222" fill-opacity="0.8980" d="M91 40h1v1H91z"/><path fill="#222" fill-opacity="0.9059" d="M28 34h1v1H28zM92 39h1v1H92zM41 104h1v1H41z"/><path fill="#222" fill-opacity="0.9098" d="M22 39h1v1H22z"/><path fill="#222" fill-opacity="0.9137" d="M93 38h1v1H93zM88 43h1v1H88z"/><path fill="#222" fill-opacity="0.9176" d="M100 35h1v1H100z"/><path fill="#222" fill-opacity="0.9216" d="M104 82h1v1H104z"/><path fill="#222" fill-opacity="0.9255" d="M86 23h1v1H86zM103 90h1v1H103z"/><path fill="#222" fill-opacity="0.9294" d="M25 36h1v1H25z"/><path fill="#222" fill-opacity="0.9373" d="M22 61h1v1H22z"/><path fill="#222" fill-opacity="0.9412" d="M90 41h1v1H90z"/><path fill="#222" fill-opacity="0.9451" d="M94 36h1v1H94z"/><path fill="#222" fill-opacity="0.9490" d="M21 41h1v1H21z"/><path fill="#222" fill-opacity="0.9529" d="M33 33h1v1H33zM20 62h1v1H20zM95 94h1v1H95z"/><path fill="#222" fill-opacity="0.9569" d="M87 47h1v1H87z"/><path fill="#222" fill-opacity="0.9608" d="M29 37h1v1H29zM106 65h1v1H106zM104 83h1v1H104zM33 86h1v1H33zM39 93h55v1H39z"/><path fill="#222" fill-opacity="0.9647" d="M89 42h1v1H89zM21 62h1v1H21zM34 85h1v1H34zM27 93h1v1H27zM35 93h1v1H35zM38 93h1v1H38z"/><path fill="#222" fill-opacity="0.9686" d="M21 45h1v1H21zM21 46h1v1H21zM21 49h1v1H21zM21 50h1v1H21zM21 51h1v1H21zM21 60h1v1H21zM105 84h1v1H105zM36 93h2v1H36z"/><path fill="#222" fill-opacity="0.9725" d="M93 33h1v1H93zM59 34h5v1H59zM89 34h3v1H89zM21 47h1v1H21zM21 52h1v1H21zM94 93h1v1H94zM39 104h1v1H39z"/><path fill="#222" fill-opacity="0.9765" d="M88 23h1v1H88zM91 26h1v1H91zM93 28h1v1H93zM95 30h1v1H95zM94 32h1v1H94zM97 32h1v1H97zM43 34h4v1H43zM57 34h2v1H57zM64 34h3v1H64zM75 34h2v1H75zM87 34h2v1H87zM92 34h1v1H92zM97 37h1v1H97zM95 39h1v1H95zM25 40h1v1H25zM22 41h1v1H22zM21 48h1v1H21zM21 53h1v1H21zM39 82h1v1H39zM38 84h1v1H38zM28 93h1v1H28zM30 95h1v1H30zM32 97h1v1H32zM34 99h1v1H34zM40 104h1v1H40z"/><path fill="#222" fill-opacity="0.9804" d="M89 24h1v1H89zM92 27h1v1H92zM98 33h1v1H98zM39 34h4v1H39zM47 34h4v1H47zM54 34h3v1H54zM67 34h1v1H67zM70 34h5v1H70zM77 34h3v1H77zM86 34h1v1H86zM31 35h2v1H31zM27 36h2v1H27zM23 40h1v1H23zM93 41h1v1H93zM22 42h1v1H22zM91 43h1v1H91zM89 45h1v1H89zM21 54h1v1H21zM21 57h1v1H21zM21 58h1v1H21zM21 59h1v1H21zM106 67h1v1H106zM38 82h1v1H38zM40 82h1v1H40zM105 85h1v1H105zM36 86h1v1H36zM104 86h1v1H104zM101 89h1v1H101zM99 91h1v1H99zM96 92h1v1H96zM34 93h1v1H34zM31 96h1v1H31zM33 98h2v1H33zM35 100h2v1H35zM36 101h1v1H36zM38 102h1v1H38zM38 103h1v1H38z"/><path fill="#222" fill-opacity="0.9843" d="M88 24h1v1H88zM89 25h2v1H89zM90 26h1v1H90zM91 27h1v1H91zM92 28h1v1H92zM93 29h2v1H93zM96 31h1v1H96zM37 34h2v1H37zM51 34h3v1H51zM68 34h2v1H68zM80 34h3v1H80zM85 34h1v1H85zM30 35h1v1H30zM26 37h1v1H26zM23 38h1v1H23zM26 39h1v1H26zM24 40h1v1H24zM23 41h1v1H23zM92 41h1v1H92zM89 44h1v1H89zM88 45h1v1H88zM21 55h1v1H21zM21 56h1v1H21zM106 68h1v1H106zM106 69h1v1H106zM106 70h1v1H106zM106 71h1v1H106zM106 75h1v1H106zM106 76h1v1H106zM106 77h1v1H106zM106 78h1v1H106zM106 79h1v1H106zM106 80h1v1H106zM107 82h1v1H107zM39 83h1v1H39zM107 83h1v1H107zM37 85h1v1H37zM104 85h1v1H104zM35 87h1v1H35zM34 88h1v1H34zM30 91h1v1H30zM29 92h1v1H29zM97 92h1v1H97zM29 94h1v1H29zM35 99h1v1H35zM37 101h1v1H37zM37 102h1v1H37zM39 103h1v1H39z"/><path fill="#222" fill-opacity="0.9882" d="M87 23h1v1H87zM94 33h1v1H94zM34 34h3v1H34zM83 34h2v1H83zM99 34h1v1H99zM29 35h1v1H29zM98 36h1v1H98zM27 37h1v1H27zM96 37h1v1H96zM24 38h2v1H24zM96 38h1v1H96zM24 39h1v1H24zM94 39h1v1H94zM93 40h2v1H93zM91 42h2v1H91zM90 43h1v1H90zM20 44h2v1H20zM90 44h1v1H90zM88 46h1v1H88zM107 67h1v1H107zM106 72h1v1H106zM106 73h1v1H106zM106 74h1v1H106zM36 84h1v1H36zM35 86h1v1H35zM103 87h2v1H103zM33 88h1v1H33zM102 88h2v1H102zM32 89h2v1H32zM102 89h1v1H102zM31 90h2v1H31zM100 90h2v1H100zM100 91h1v1H100zM98 92h1v1H98zM32 96h1v1H32z"/><path fill="#222" fill-opacity="0.9922" d="M94 30h1v1H94zM95 31h1v1H95zM93 34h1v1H93zM98 34h1v1H98zM98 35h2v1H98zM94 38h2v1H94zM25 39h1v1H25zM23 43h1v1H23zM105 67h1v1H105zM106 81h2v1H106zM37 83h1v1H37zM105 83h1v1H105zM37 84h1v1H37zM103 86h1v1H103zM105 86h1v1H105zM34 87h1v1H34zM98 90h1v1H98zM29 93h1v1H29zM33 97h1v1H33z"/><path fill="#222" fill-opacity="0.9961" d="M96 32h1v1H96zM95 37h1v1H95zM23 42h1v1H23zM22 43h1v1H22zM88 47h1v1H88zM22 59h1v1H22zM20 60h1v1H20zM21 61h1v1H21zM35 84h1v1H35zM106 84h1v1H106zM35 85h2v1H35zM33 90h1v1H33zM32 91h1v1H32zM95 91h1v1H95zM95 92h1v1H95zM31 95h2v1H31z"/><path fill="#222" fill-opacity="1.0000" d="M87 22h2v1H87zM89 23h1v1H89zM87 24h1v1H87zM90 24h1v1H90zM88 25h1v1H88zM91 25h1v1H91zM89 26h1v1H89zM92 26h1v1H92zM90 27h1v1H90zM93 27h1v1H93zM91 28h1v1H91zM94 28h1v1H94zM92 29h1v1H92zM95 29h1v1H95zM93 30h1v1H93zM96 30h1v1H96zM94 31h1v1H94zM97 31h1v1H97zM95 32h1v1H95zM98 32h1v1H98zM34 33h59v1H34zM95 33h3v1H95zM99 33h1v1H99zM29 34h5v1H29zM94 34h4v1H94zM27 35h2v1H27zM33 35h65v1H33zM26 36h1v1H26zM29 36h4v1H29zM95 36h3v1H95zM99 36h1v1H99zM24 37h2v1H24zM28 37h1v1H28zM98 37h1v1H98zM26 38h2v1H26zM97 38h1v1H97zM23 39h1v1H23zM93 39h1v1H93zM96 39h1v1H96zM22 40h1v1H22zM92 40h1v1H92zM95 40h1v1H95zM24 41h1v1H24zM91 41h1v1H91zM94 41h1v1H94zM21 42h1v1H21zM90 42h1v1H90zM93 42h1v1H93zM20 43h2v1H20zM89 43h1v1H89zM92 43h1v1H92zM22 44h1v1H22zM88 44h1v1H88zM91 44h1v1H91zM20 45h1v1H20zM22 45h1v1H22zM87 45h1v1H87zM90 45h1v1H90zM20 46h1v1H20zM22 46h1v1H22zM87 46h1v1H87zM89 46h1v1H89zM20 47h1v1H20zM22 47h1v1H22zM20 48h1v1H20zM22 48h1v1H22zM20 49h1v1H20zM22 49h1v1H22zM20 50h1v1H20zM22 50h1v1H22zM20 51h1v1H20zM22 51h1v1H22zM20 52h1v1H20zM22 52h1v1H22zM20 53h1v1H20zM22 53h1v1H22zM20 54h1v1H20zM22 54h1v1H22zM20 55h1v1H20zM22 55h1v1H22zM20 56h1v1H20zM22 56h1v1H22zM20 57h1v1H20zM22 57h1v1H22zM20 58h1v1H20zM22 58h1v1H22zM20 59h1v1H20zM22 60h1v1H22zM20 61h1v1H20zM105 66h3v1H105zM105 68h1v1H105zM107 68h1v1H107zM105 69h1v1H105zM107 69h1v1H107zM105 70h1v1H105zM107 70h1v1H107zM105 71h1v1H105zM107 71h1v1H107zM105 72h1v1H105zM107 72h1v1H107zM105 73h1v1H105zM107 73h1v1H107zM105 74h1v1H105zM107 74h1v1H107zM105 75h1v1H105zM107 75h1v1H107zM105 76h1v1H105zM107 76h1v1H107zM105 77h1v1H105zM107 77h1v1H107zM105 78h1v1H105zM107 78h1v1H107zM105 79h1v1H105zM107 79h1v1H107zM105 80h1v1H105zM107 80h1v1H107zM38 81h3v1H38zM105 81h1v1H105zM37 82h1v1H37zM105 82h2v1H105zM36 83h1v1H36zM38 83h1v1H38zM40 83h1v1H40zM106 83h1v1H106zM39 84h1v1H39zM104 84h1v1H104zM38 85h1v1H38zM103 85h1v1H103zM106 85h1v1H106zM34 86h1v1H34zM37 86h1v1H37zM33 87h1v1H33zM36 87h1v1H36zM102 87h1v1H102zM105 87h1v1H105zM32 88h1v1H32zM35 88h1v1H35zM101 88h1v1H101zM104 88h1v1H104zM31 89h1v1H31zM34 89h1v1H34zM100 89h1v1H100zM103 89h1v1H103zM30 90h1v1H30zM99 90h1v1H99zM102 90h1v1H102zM29 91h1v1H29zM31 91h1v1H31zM33 91h1v1H33zM96 91h3v1H96zM101 91h1v1H101zM28 92h1v1H28zM30 92h65v1H30zM99 92h2v1H99zM30 93h4v1H30zM95 93h4v1H95zM28 94h1v1H28zM30 94h65v1H30zM29 95h1v1H29zM33 95h1v1H33zM30 96h1v1H30zM33 96h1v1H33zM31 97h1v1H31zM34 97h1v1H34zM32 98h1v1H32zM35 98h1v1H35zM33 99h1v1H33zM36 99h1v1H36zM34 100h1v1H34zM37 100h1v1H37zM35 101h1v1H35zM38 101h1v1H38zM36 102h1v1H36zM39 102h1v1H39zM37 103h1v1H37zM40 103h1v1H40zM38 104h1v1H38zM39 105h2v1H39z"/></svg>