<?xml version="1.0" standalone="no"?>
<!DOCTYPE svg PUBLIC "-//W3C//DTD SVG 20010904//EN"
 "http://www.w3.org/TR/2001/REC-SVG-20010904/DTD/svg10.dtd">
<svg version="1.0" xmlns="http://www.w3.org/2000/svg"
 width="372.287884pt" height="356.682410pt" viewBox="0 0 372.287884 356.682410"
 preserveAspectRatio="xMidYMid meet">
<metadata>
Created by potrace 1.16, written by Peter Selinger 2001-2019
</metadata>
<g transform="translate(-70.842441,436.000000) scale(0.100000,-0.100000)"
fill="#000000" stroke="none">
<path d="M3516 4319 c-38 -33 -46 -47 -46 -75 0 -29 13 -47 100 -136 186 -191
200 -206 200 -212 0 -3 -553 -6 -1230 -6 -870 0 -1244 -3 -1277 -11 -139 -33
-174 -43 -184 -55 -6 -8 -17 -14 -25 -14 -14 0 -164 -116 -177 -137 -4 -7 -26
-33 -47 -59 -22 -25 -40 -51 -40 -58 0 -7 -9 -25 -20 -39 -11 -14 -23 -40 -27
-59 -3 -18 -13 -43 -21 -56 -12 -19 -15 -81 -13 -390 1 -322 3 -368 17 -377 9
-5 25 -18 36 -27 27 -23 43 -23 85 3 60 37 63 56 63 398 0 339 3 358 69 456
17 25 31 49 31 53 0 17 72 69 155 111 l90 46 1260 5 c693 3 1263 4 1267 2 4
-2 -47 -58 -115 -125 -180 -180 -197 -200 -197 -243 0 -19 5 -44 10 -55 10
-18 78 -59 99 -59 19 0 540 528 547 554 3 14 3 38 0 52 -4 16 -87 107 -208
228 -110 110 -210 212 -222 226 -28 33 -110 100 -123 100 -6 0 -31 -18 -57
-41z M4295 2560 c-11 -4 -31 -20 -45 -35 l-25 -27 -5 -336 c-4 -242 -9 -343
-18 -359 -6 -12 -12 -30 -12 -41 0 -10 -9 -27 -20 -37 -11 -10 -20 -26 -20
-36 0 -26 -134 -145 -198 -175 l-57 -27 -425 -7 c-335 -6 -1964 -4 -2030 2 -8
1 -25 -2 -37 -6 -14 -4 -23 -3 -23 2 0 6 61 70 136 144 177 174 189 197 139
271 -24 34 -29 37 -74 37 -46 0 -51 -3 -122 -73 -105 -103 -372 -385 -408
-431 -30 -38 -38 -69 -23 -93 21 -33 525 -533 543 -538 15 -5 33 1 62 21 43
31 63 70 53 107 -3 12 -75 92 -161 179 -85 86 -155 159 -155 162 0 3 564 6
1253 6 l1252 0 75 24 c126 41 196 84 298 188 67 69 131 169 132 208 0 8 7 24
15 34 8 11 15 40 15 64 0 24 5 53 12 65 8 15 10 108 9 315 -3 325 -6 345 -64
381 -37 23 -42 24 -72 11z"/>
</g>
</svg>
