<?xml version="1.0" standalone="no"?>
<!DOCTYPE svg PUBLIC "-//W3C//DTD SVG 20010904//EN"
 "http://www.w3.org/TR/2001/REC-SVG-20010904/DTD/svg10.dtd">
<svg version="1.0" xmlns="http://www.w3.org/2000/svg"
 width="306.019951pt" height="338.000000pt" viewBox="0 0 306.019951 338.000000"
 preserveAspectRatio="xMidYMid meet">
<metadata>
Created by potrace 1.16, written by Peter Selinger 2001-2019
</metadata>
<g transform="translate(-102.999995,425.000000) scale(0.100000,-0.100000)"
fill="#000000" stroke="none">
<path d="M2462 4216 l-37 -34 1 -1622 1 -1621 33 -35 c32 -32 38 -34 101 -34
59 0 70 3 100 30 l34 29 0 1631 0 1632 -33 29 c-29 26 -40 29 -97 29 -60 0
-68 -3 -103 -34z M1772 3588 c-11 -13 -25 -36 -31 -51 -8 -19 -11 -335 -11
-998 0 -1062 -2 -1022 59 -1053 16 -9 54 -16 84 -16 43 0 61 5 90 28 19 15 38
36 41 47 3 11 6 464 6 1007 l0 987 -31 36 c-31 34 -32 35 -108 35 -67 0 -80
-3 -99 -22z M3173 3595 c-47 -33 -47 -29 -45 -1064 3 -1066 0 -1014 62 -1046
45 -23 131 -20 165 7 57 45 55 5 55 1052 0 539 -4 975 -9 988 -5 13 -20 35
-34 51 -24 25 -32 27 -99 27 -49 0 -81 -5 -95 -15z M3930 3040 c-54 -15 -88
-40 -99 -71 -7 -22 -11 -170 -11 -451 l0 -418 33 -36 c32 -35 34 -36 106 -36
58 0 80 5 100 20 l26 19 3 461 2 462 -37 24 c-44 27 -87 37 -123 26z M1093
3020 c-63 -38 -63 -35 -63 -499 l0 -420 31 -36 c30 -34 33 -35 106 -35 147 0
143 -15 143 498 0 267 -4 420 -11 440 -23 66 -137 95 -206 52z"/>
</g>
</svg>
