<?xml version="1.0" standalone="no"?>
<!DOCTYPE svg PUBLIC "-//W3C//DTD SVG 20010904//EN"
 "http://www.w3.org/TR/2001/REC-SVG-20010904/DTD/svg10.dtd">
<svg version="1.0" xmlns="http://www.w3.org/2000/svg"
 width="378.715860pt" height="377.493951pt" viewBox="0 0 378.715860 377.493951"
 preserveAspectRatio="xMidYMid meet">
<metadata>
Created by potrace 1.16, written by Peter Selinger 2001-2019
</metadata>
<g transform="translate(-66.700237,444.990675) scale(0.100000,-0.100000)"
fill="#000000" stroke="none">
<path d="M2168 4445 c-3 -3 -36 -9 -74 -15 -146 -20 -190 -29 -219 -44 -16 -9
-40 -16 -52 -16 -36 0 -200 -66 -273 -110 -8 -5 -22 -11 -30 -14 -8 -4 -35
-20 -60 -36 -25 -16 -55 -34 -67 -39 -11 -5 -24 -15 -28 -21 -4 -6 -15 -14
-25 -18 -28 -11 -192 -156 -247 -220 -71 -81 -143 -171 -143 -177 0 -3 -15
-27 -33 -53 -38 -54 -97 -162 -97 -177 0 -6 -5 -16 -11 -22 -14 -14 -59 -122
-59 -142 0 -7 -8 -30 -19 -50 -85 -165 -86 -766 -1 -956 10 -22 23 -58 30 -80
26 -88 173 -358 208 -385 4 -3 26 -30 49 -60 112 -149 310 -314 488 -405 33
-17 69 -36 80 -42 94 -48 205 -91 255 -99 25 -3 60 -12 79 -20 18 -8 50 -14
71 -14 20 0 59 -7 86 -15 70 -21 426 -21 477 0 20 8 52 15 71 15 40 0 206 43
251 64 17 8 57 25 90 37 33 13 67 28 75 34 8 6 44 26 79 44 64 32 125 73 187
125 41 34 69 30 100 -14 25 -36 743 -763 792 -803 57 -45 100 -53 153 -29 24
11 57 34 73 51 26 27 29 37 30 100 l0 71 -374 371 c-206 204 -405 396 -442
426 -38 31 -68 59 -68 65 0 5 26 44 58 86 31 42 63 88 69 102 7 14 22 39 33
55 19 29 64 118 101 200 22 48 47 127 58 177 5 21 13 43 19 50 49 59 46 672
-4 770 -8 15 -14 37 -14 50 0 43 -98 270 -165 383 -13 22 -28 50 -34 61 -5 12
-13 23 -18 25 -4 2 -22 25 -40 50 -106 152 -283 317 -453 422 -122 76 -321
167 -364 167 -12 0 -38 9 -59 20 -20 11 -50 20 -66 20 -16 0 -73 9 -128 20
-71 14 -138 20 -244 20 -80 0 -148 -2 -151 -5z m446 -238 c21 -9 49 -17 61
-17 13 0 42 -9 66 -20 24 -11 52 -20 62 -20 10 0 44 -12 75 -26 31 -14 77 -36
102 -47 25 -11 47 -23 50 -27 5 -6 111 -79 139 -95 10 -6 25 -17 34 -25 9 -8
43 -37 75 -65 94 -80 227 -254 300 -390 37 -70 84 -181 92 -218 4 -23 15 -62
24 -87 39 -117 56 -348 36 -495 -7 -49 -16 -115 -20 -145 -4 -31 -15 -70 -24
-87 -9 -18 -16 -42 -16 -54 0 -12 -9 -38 -20 -58 -11 -20 -24 -47 -30 -61 -5
-14 -14 -32 -19 -40 -5 -8 -14 -26 -20 -40 -50 -108 -133 -228 -236 -339 -45
-49 -229 -201 -243 -201 -5 0 -17 -9 -27 -20 -10 -11 -24 -20 -30 -20 -7 0
-24 -9 -38 -20 -14 -11 -32 -20 -40 -20 -8 0 -20 -6 -26 -14 -7 -8 -24 -17
-39 -20 -15 -4 -45 -15 -67 -26 -57 -27 -175 -60 -213 -60 -18 0 -58 -9 -89
-20 -49 -17 -83 -20 -230 -20 -148 0 -182 3 -230 20 -32 11 -70 20 -85 20 -46
0 -195 50 -308 103 -144 68 -253 143 -373 257 -135 129 -213 238 -309 434 -17
33 -59 160 -67 201 -5 22 -13 53 -20 68 -33 84 -31 554 3 631 8 17 17 45 19
61 9 49 45 144 93 240 55 110 60 118 107 176 20 26 37 51 37 56 0 4 39 49 88
99 75 78 109 108 217 189 40 30 96 65 104 65 4 0 16 9 26 20 10 11 23 20 29
20 6 0 31 10 56 22 105 51 238 98 278 98 13 0 33 5 45 12 39 20 128 27 347 24
175 -2 222 -6 254 -19z"/>
</g>
</svg>
